<svg width="26" height="20" viewBox="0 0 26 20" fill="none" xmlns="http://www.w3.org/2000/svg">
<path d="M1.68125 11.25H20.2979L12.1646 17.35C11.5146 17.8375 11.5146 18.6375 12.1646 19.125C12.8146 19.6125 13.8646 19.6125 14.5146 19.125L25.4979 10.8875C26.1479 10.4 26.1479 9.61251 25.4979 9.12501L14.5313 0.875006C14.2199 0.640941 13.7971 0.509399 13.3563 0.509399C12.9154 0.509399 12.4926 0.640941 12.1813 0.875006C11.5313 1.36251 11.5313 2.15001 12.1813 2.63751L20.2979 8.75001H1.68125C0.764587 8.75001 0.0145874 9.31251 0.0145874 10C0.0145874 10.6875 0.764587 11.25 1.68125 11.25Z" fill="#4DA0FD"/>
</svg>
