<svg width="274" height="19" viewBox="0 0 274 19" fill="none" xmlns="http://www.w3.org/2000/svg">
<path d="M9.56 15C9.17333 14.2267 8.74667 13.4467 8.28 12.66C7.82667 11.86 7.3 11.0467 6.7 10.22C6.51333 10.46 6.27333 10.7933 5.98 11.22C5.7 11.6467 5.41333 12.1 5.12 12.58C4.84 13.06 4.57333 13.52 4.32 13.96C4.06667 14.4 3.88 14.7467 3.76 15H0.2C0.786667 13.92 1.46667 12.7867 2.24 11.6C3.02667 10.4133 3.9 9.15333 4.86 7.82L0.4 1.14H4.18L6.88 5.46L9.52 1.14H13.08L8.68 7.86C9.8 9.31333 10.74 10.66 11.5 11.9C12.26 13.1267 12.86 14.16 13.3 15H9.56ZM26.1161 8.06C26.1161 9.34 25.9294 10.4333 25.5561 11.34C25.1961 12.2467 24.6961 12.9933 24.0561 13.58C23.4294 14.1667 22.6894 14.6 21.8361 14.88C20.9828 15.1467 20.0761 15.28 19.1161 15.28C18.1961 15.28 17.3494 15.18 16.5761 14.98C15.8161 14.78 15.0561 14.4867 14.2961 14.1L15.2961 11.6C15.4828 11.68 15.7028 11.78 15.9561 11.9C16.2094 12.0067 16.4894 12.1133 16.7961 12.22C17.1161 12.3133 17.4628 12.3933 17.8361 12.46C18.2228 12.5267 18.6294 12.56 19.0561 12.56C20.1228 12.56 20.9761 12.2867 21.6161 11.74C22.2561 11.18 22.6561 10.36 22.8161 9.28H17.0161V6.64H22.7561C22.5961 5.57333 22.2028 4.78667 21.5761 4.28C20.9628 3.77333 20.1228 3.52 19.0561 3.52C18.2694 3.52 17.5494 3.62 16.8961 3.82C16.2428 4.00667 15.7294 4.19333 15.3561 4.38L14.4361 1.94C15.1961 1.54 15.9761 1.25333 16.7761 1.08C17.5894 0.893333 18.3894 0.799999 19.1761 0.799999C20.1494 0.799999 21.0561 0.946666 21.8961 1.24C22.7361 1.53333 23.4694 1.98 24.0961 2.58C24.7228 3.16667 25.2161 3.92 25.5761 4.84C25.9361 5.74667 26.1161 6.82 26.1161 8.06ZM32.8694 0.979999C34.936 0.979999 36.5227 1.34667 37.6294 2.08C38.736 2.8 39.2894 3.98667 39.2894 5.64C39.2894 7.30667 38.7294 8.51333 37.6094 9.26C36.4894 9.99333 34.8894 10.36 32.8094 10.36H31.8294V15H28.7094V1.34C29.3894 1.20667 30.1094 1.11333 30.8694 1.06C31.6294 1.00667 32.296 0.979999 32.8694 0.979999ZM33.0694 3.64C32.8427 3.64 32.616 3.64667 32.3894 3.66C32.176 3.67333 31.9894 3.68667 31.8294 3.7V7.7H32.8094C33.8894 7.7 34.7027 7.55333 35.2494 7.26C35.796 6.96667 36.0694 6.42 36.0694 5.62C36.0694 5.23333 35.996 4.91333 35.8494 4.66C35.716 4.40667 35.516 4.20667 35.2494 4.06C34.996 3.9 34.6827 3.79333 34.3094 3.74C33.936 3.67333 33.5227 3.64 33.0694 3.64ZM49.0913 15C48.7046 14.2267 48.2779 13.4467 47.8113 12.66C47.3579 11.86 46.8313 11.0467 46.2313 10.22C46.0446 10.46 45.8046 10.7933 45.5113 11.22C45.2313 11.6467 44.9446 12.1 44.6513 12.58C44.3713 13.06 44.1046 13.52 43.8513 13.96C43.5979 14.4 43.4113 14.7467 43.2913 15H39.7313C40.3179 13.92 40.9979 12.7867 41.7713 11.6C42.5579 10.4133 43.4313 9.15333 44.3913 7.82L39.9313 1.14H43.7113L46.4113 5.46L49.0513 1.14H52.6113L48.2113 7.86C49.3313 9.31333 50.2713 10.66 51.0313 11.9C51.7913 13.1267 52.3913 14.16 52.8313 15H49.0913ZM65.6473 8.06C65.6473 9.34 65.4607 10.4333 65.0873 11.34C64.7273 12.2467 64.2273 12.9933 63.5873 13.58C62.9607 14.1667 62.2207 14.6 61.3673 14.88C60.514 15.1467 59.6073 15.28 58.6473 15.28C57.7273 15.28 56.8807 15.18 56.1073 14.98C55.3473 14.78 54.5873 14.4867 53.8273 14.1L54.8273 11.6C55.014 11.68 55.234 11.78 55.4873 11.9C55.7407 12.0067 56.0207 12.1133 56.3273 12.22C56.6473 12.3133 56.994 12.3933 57.3673 12.46C57.754 12.5267 58.1607 12.56 58.5873 12.56C59.654 12.56 60.5073 12.2867 61.1473 11.74C61.7873 11.18 62.1873 10.36 62.3473 9.28H56.5473V6.64H62.2873C62.1273 5.57333 61.734 4.78667 61.1073 4.28C60.494 3.77333 59.654 3.52 58.5873 3.52C57.8007 3.52 57.0807 3.62 56.4273 3.82C55.774 4.00667 55.2607 4.19333 54.8873 4.38L53.9673 1.94C54.7273 1.54 55.5073 1.25333 56.3073 1.08C57.1207 0.893333 57.9207 0.799999 58.7073 0.799999C59.6807 0.799999 60.5873 0.946666 61.4273 1.24C62.2673 1.53333 63.0007 1.98 63.6273 2.58C64.254 3.16667 64.7473 3.92 65.1073 4.84C65.4673 5.74667 65.6473 6.82 65.6473 8.06ZM76.6006 1.14H79.7206V15H76.6006V9.12H71.3606V15H68.2406V1.14H71.3606V6.44H76.6006V1.14ZM97.0128 15C96.8661 14.52 96.6995 14.0267 96.5128 13.52C96.3395 13.0133 96.1661 12.5067 95.9928 12H90.5928C90.4195 12.5067 90.2395 13.0133 90.0528 13.52C89.8795 14.0267 89.7195 14.52 89.5728 15H86.3328C86.8528 13.5067 87.3461 12.1267 87.8128 10.86C88.2795 9.59333 88.7328 8.4 89.1728 7.28C89.6261 6.16 90.0661 5.1 90.4928 4.1C90.9328 3.08667 91.3861 2.1 91.8528 1.14H94.8328C95.2861 2.1 95.7328 3.08667 96.1728 4.1C96.6128 5.1 97.0528 6.16 97.4928 7.28C97.9461 8.4 98.4061 9.59333 98.8728 10.86C99.3395 12.1267 99.8328 13.5067 100.353 15H97.0128ZM93.2728 4.28C93.2061 4.48 93.1061 4.75333 92.9728 5.1C92.8395 5.44667 92.6861 5.84667 92.5128 6.3C92.3395 6.75333 92.1461 7.25333 91.9328 7.8C91.7328 8.34667 91.5261 8.92 91.3128 9.52H95.2528C95.0395 8.92 94.8328 8.34667 94.6328 7.8C94.4328 7.25333 94.2395 6.75333 94.0528 6.3C93.8795 5.84667 93.7261 5.44667 93.5928 5.1C93.4595 4.75333 93.3528 4.48 93.2728 4.28ZM101.235 15C101.622 14.32 102.035 13.64 102.475 12.96C102.915 12.28 103.362 11.6267 103.815 11C104.282 10.36 104.755 9.76667 105.235 9.22C105.728 8.66 106.222 8.16 106.715 7.72C106.155 7.14667 105.635 6.58667 105.155 6.04C104.675 5.49333 104.215 4.95333 103.775 4.42C103.348 3.88667 102.928 3.35333 102.515 2.82C102.102 2.27333 101.682 1.71333 101.255 1.14H105.015C105.415 1.7 105.788 2.21333 106.135 2.68C106.495 3.14667 106.842 3.6 107.175 4.04C107.522 4.48 107.868 4.91333 108.215 5.34C108.562 5.76667 108.935 6.22 109.335 6.7V1.14H112.375V6.7C112.775 6.20667 113.155 5.74 113.515 5.3C113.888 4.84667 114.248 4.4 114.595 3.96C114.942 3.52 115.288 3.07333 115.635 2.62C115.982 2.15333 116.335 1.66 116.695 1.14H120.435C119.955 1.76667 119.502 2.35333 119.075 2.9C118.662 3.44667 118.242 3.98 117.815 4.5C117.388 5.02 116.948 5.54 116.495 6.06C116.055 6.58 115.568 7.12667 115.035 7.7C116.115 8.7 117.102 9.82667 117.995 11.08C118.888 12.32 119.722 13.6267 120.495 15H117.015C116.602 14.3733 116.215 13.7933 115.855 13.26C115.495 12.7267 115.135 12.2133 114.775 11.72C114.415 11.2267 114.042 10.7467 113.655 10.28C113.268 9.8 112.842 9.30667 112.375 8.8V15H109.335V8.8C108.855 9.36 108.422 9.88 108.035 10.36C107.648 10.84 107.275 11.32 106.915 11.8C106.568 12.28 106.215 12.78 105.855 13.3C105.495 13.8067 105.108 14.3733 104.695 15H101.235ZM122.303 15V1.14H125.403V9.32C125.883 8.6 126.396 7.85333 126.943 7.08C127.49 6.29333 128.036 5.54 128.583 4.82C129.143 4.08667 129.69 3.4 130.223 2.76C130.756 2.12 131.243 1.58 131.683 1.14H134.223V15H131.143V5.92C129.97 7.29333 128.863 8.75333 127.823 10.3C126.783 11.8467 125.816 13.4133 124.923 15H122.303ZM143.48 3.78C143.44 4.67333 143.387 5.57333 143.32 6.48C143.267 7.37333 143.16 8.24 143 9.08C142.854 9.92 142.634 10.7067 142.34 11.44C142.06 12.1733 141.667 12.82 141.16 13.38C140.667 13.94 140.047 14.3867 139.3 14.72C138.554 15.0533 137.64 15.24 136.56 15.28L136.22 12.56C137.18 12.4533 137.92 12.2133 138.44 11.84C138.96 11.4533 139.354 10.8667 139.62 10.08C139.954 9.10667 140.187 7.85333 140.32 6.32C140.467 4.77333 140.54 3.04667 140.54 1.14H150V15H146.88V3.78H143.48ZM159.262 3.78C159.222 4.67333 159.168 5.57333 159.102 6.48C159.048 7.37333 158.942 8.24 158.782 9.08C158.635 9.92 158.415 10.7067 158.122 11.44C157.842 12.1733 157.448 12.82 156.942 13.38C156.448 13.94 155.828 14.3867 155.082 14.72C154.335 15.0533 153.422 15.24 152.342 15.28L152.002 12.56C152.962 12.4533 153.702 12.2133 154.222 11.84C154.742 11.4533 155.135 10.8667 155.402 10.08C155.735 9.10667 155.968 7.85333 156.102 6.32C156.248 4.77333 156.322 3.04667 156.322 1.14H165.782V15H162.662V3.78H159.262ZM178.263 15C178.116 14.52 177.949 14.0267 177.763 13.52C177.589 13.0133 177.416 12.5067 177.243 12H171.843C171.669 12.5067 171.489 13.0133 171.303 13.52C171.129 14.0267 170.969 14.52 170.823 15H167.583C168.103 13.5067 168.596 12.1267 169.063 10.86C169.529 9.59333 169.983 8.4 170.423 7.28C170.876 6.16 171.316 5.1 171.743 4.1C172.183 3.08667 172.636 2.1 173.103 1.14H176.083C176.536 2.1 176.983 3.08667 177.423 4.1C177.863 5.1 178.303 6.16 178.743 7.28C179.196 8.4 179.656 9.59333 180.123 10.86C180.589 12.1267 181.083 13.5067 181.603 15H178.263ZM174.523 4.28C174.456 4.48 174.356 4.75333 174.223 5.1C174.089 5.44667 173.936 5.84667 173.763 6.3C173.589 6.75333 173.396 7.25333 173.183 7.8C172.983 8.34667 172.776 8.92 172.563 9.52H176.503C176.289 8.92 176.083 8.34667 175.883 7.8C175.683 7.25333 175.489 6.75333 175.303 6.3C175.129 5.84667 174.976 5.44667 174.843 5.1C174.709 4.75333 174.603 4.48 174.523 4.28ZM182.568 12.36H184.568C185.061 11.5067 185.448 10.66 185.728 9.82C186.008 8.98 186.215 8.12667 186.348 7.26C186.495 6.39333 186.581 5.5 186.608 4.58C186.648 3.66 186.668 2.69333 186.668 1.68V1.14H195.828V12.36H198.208V18.7H195.208V15H185.568V18.7H182.568V12.36ZM189.608 3.78C189.581 4.5 189.535 5.24 189.468 6C189.401 6.76 189.301 7.51333 189.168 8.26C189.035 8.99333 188.855 9.71333 188.628 10.42C188.415 11.1133 188.141 11.76 187.808 12.36H192.788V3.78H189.608ZM209.864 15C209.718 14.52 209.551 14.0267 209.364 13.52C209.191 13.0133 209.018 12.5067 208.844 12H203.444C203.271 12.5067 203.091 13.0133 202.904 13.52C202.731 14.0267 202.571 14.52 202.424 15H199.184C199.704 13.5067 200.198 12.1267 200.664 10.86C201.131 9.59333 201.584 8.4 202.024 7.28C202.478 6.16 202.918 5.1 203.344 4.1C203.784 3.08667 204.238 2.1 204.704 1.14H207.684C208.138 2.1 208.584 3.08667 209.024 4.1C209.464 5.1 209.904 6.16 210.344 7.28C210.798 8.4 211.258 9.59333 211.724 10.86C212.191 12.1267 212.684 13.5067 213.204 15H209.864ZM206.124 4.28C206.058 4.48 205.958 4.75333 205.824 5.1C205.691 5.44667 205.538 5.84667 205.364 6.3C205.191 6.75333 204.998 7.25333 204.784 7.8C204.584 8.34667 204.378 8.92 204.164 9.52H208.104C207.891 8.92 207.684 8.34667 207.484 7.8C207.284 7.25333 207.091 6.75333 206.904 6.3C206.731 5.84667 206.578 5.44667 206.444 5.1C206.311 4.75333 206.204 4.48 206.124 4.28ZM214.087 15C214.473 14.32 214.887 13.64 215.327 12.96C215.767 12.28 216.213 11.6267 216.667 11C217.133 10.36 217.607 9.76667 218.087 9.22C218.58 8.66 219.073 8.16 219.567 7.72C219.007 7.14667 218.487 6.58667 218.007 6.04C217.527 5.49333 217.067 4.95333 216.627 4.42C216.2 3.88667 215.78 3.35333 215.367 2.82C214.953 2.27333 214.533 1.71333 214.107 1.14H217.867C218.267 1.7 218.64 2.21333 218.987 2.68C219.347 3.14667 219.693 3.6 220.027 4.04C220.373 4.48 220.72 4.91333 221.067 5.34C221.413 5.76667 221.787 6.22 222.187 6.7V1.14H225.227V6.7C225.627 6.20667 226.007 5.74 226.367 5.3C226.74 4.84667 227.1 4.4 227.447 3.96C227.793 3.52 228.14 3.07333 228.487 2.62C228.833 2.15333 229.187 1.66 229.547 1.14H233.287C232.807 1.76667 232.353 2.35333 231.927 2.9C231.513 3.44667 231.093 3.98 230.667 4.5C230.24 5.02 229.8 5.54 229.347 6.06C228.907 6.58 228.42 7.12667 227.887 7.7C228.967 8.7 229.953 9.82667 230.847 11.08C231.74 12.32 232.573 13.6267 233.347 15H229.867C229.453 14.3733 229.067 13.7933 228.707 13.26C228.347 12.7267 227.987 12.2133 227.627 11.72C227.267 11.2267 226.893 10.7467 226.507 10.28C226.12 9.8 225.693 9.30667 225.227 8.8V15H222.187V8.8C221.707 9.36 221.273 9.88 220.887 10.36C220.5 10.84 220.127 11.32 219.767 11.8C219.42 12.28 219.067 12.78 218.707 13.3C218.347 13.8067 217.96 14.3733 217.547 15H214.087ZM244.579 15.18C243.819 15.18 243.059 15.1533 242.299 15.1C241.553 15.06 240.773 14.9533 239.959 14.78V1.34C240.599 1.22 241.299 1.13333 242.059 1.08C242.819 1.01333 243.526 0.979999 244.179 0.979999C245.059 0.979999 245.866 1.04667 246.599 1.18C247.346 1.3 247.986 1.51333 248.519 1.82C249.053 2.12667 249.466 2.53333 249.759 3.04C250.066 3.53333 250.219 4.14667 250.219 4.88C250.219 5.98667 249.686 6.86 248.619 7.5C249.499 7.83333 250.099 8.28667 250.419 8.86C250.739 9.43333 250.899 10.08 250.899 10.8C250.899 12.2533 250.366 13.3467 249.299 14.08C248.246 14.8133 246.673 15.18 244.579 15.18ZM242.999 8.96V12.54C243.226 12.5667 243.473 12.5867 243.739 12.6C244.006 12.6133 244.299 12.62 244.619 12.62C245.553 12.62 246.306 12.4867 246.879 12.22C247.453 11.9533 247.739 11.46 247.739 10.74C247.739 10.1 247.499 9.64667 247.019 9.38C246.539 9.1 245.853 8.96 244.959 8.96H242.999ZM242.999 6.58H244.519C245.479 6.58 246.166 6.46 246.579 6.22C246.993 5.96667 247.199 5.56667 247.199 5.02C247.199 4.46 246.986 4.06667 246.559 3.84C246.133 3.61333 245.506 3.5 244.679 3.5C244.413 3.5 244.126 3.50667 243.819 3.52C243.513 3.52 243.239 3.53333 242.999 3.56V6.58ZM264.202 8.06C264.202 9.34 264.015 10.4333 263.642 11.34C263.282 12.2467 262.782 12.9933 262.142 13.58C261.515 14.1667 260.775 14.6 259.922 14.88C259.069 15.1467 258.162 15.28 257.202 15.28C256.282 15.28 255.435 15.18 254.662 14.98C253.902 14.78 253.142 14.4867 252.382 14.1L253.382 11.6C253.569 11.68 253.789 11.78 254.042 11.9C254.295 12.0067 254.575 12.1133 254.882 12.22C255.202 12.3133 255.549 12.3933 255.922 12.46C256.309 12.5267 256.715 12.56 257.142 12.56C258.209 12.56 259.062 12.2867 259.702 11.74C260.342 11.18 260.742 10.36 260.902 9.28H255.102V6.64H260.842C260.682 5.57333 260.289 4.78667 259.662 4.28C259.049 3.77333 258.209 3.52 257.142 3.52C256.355 3.52 255.635 3.62 254.982 3.82C254.329 4.00667 253.815 4.19333 253.442 4.38L252.522 1.94C253.282 1.54 254.062 1.25333 254.862 1.08C255.675 0.893333 256.475 0.799999 257.262 0.799999C258.235 0.799999 259.142 0.946666 259.982 1.24C260.822 1.53333 261.555 1.98 262.182 2.58C262.809 3.16667 263.302 3.92 263.662 4.84C264.022 5.74667 264.202 6.82 264.202 8.06ZM268.844 3.36C268.364 3.36 267.911 3.42 267.484 3.54C267.058 3.66 266.584 3.85333 266.064 4.12L265.224 1.86C265.744 1.52667 266.358 1.27333 267.064 1.1C267.771 0.913332 268.464 0.819999 269.144 0.819999C269.998 0.819999 270.698 0.933332 271.244 1.16C271.804 1.38667 272.244 1.67333 272.564 2.02C272.884 2.36667 273.104 2.74667 273.224 3.16C273.358 3.57333 273.424 3.96667 273.424 4.34C273.424 4.71333 273.364 5.06 273.244 5.38C273.138 5.68667 272.998 5.97333 272.824 6.24C272.651 6.50667 272.451 6.76 272.224 7C271.998 7.24 271.778 7.46667 271.564 7.68C271.404 7.84 271.238 8.01333 271.064 8.2C270.891 8.37333 270.731 8.56 270.584 8.76C270.451 8.96 270.338 9.17333 270.244 9.4C270.151 9.61333 270.104 9.83333 270.104 10.06C270.104 10.1133 270.104 10.1933 270.104 10.3C270.104 10.4067 270.111 10.5 270.124 10.58H267.484C267.458 10.4467 267.438 10.3 267.424 10.14C267.424 9.96667 267.424 9.82 267.424 9.7C267.424 9.32667 267.471 8.99333 267.564 8.7C267.658 8.39333 267.778 8.11333 267.924 7.86C268.084 7.59333 268.264 7.34667 268.464 7.12C268.664 6.89333 268.871 6.67333 269.084 6.46C269.391 6.15333 269.671 5.85333 269.924 5.56C270.178 5.25333 270.304 4.90667 270.304 4.52C270.304 4.2 270.178 3.92667 269.924 3.7C269.684 3.47333 269.324 3.36 268.844 3.36ZM270.704 13.42C270.704 14.0067 270.511 14.46 270.124 14.78C269.751 15.1 269.324 15.26 268.844 15.26C268.364 15.26 267.931 15.1 267.544 14.78C267.171 14.46 266.984 14.0067 266.984 13.42C266.984 12.8333 267.171 12.38 267.544 12.06C267.931 11.74 268.364 11.58 268.844 11.58C269.324 11.58 269.751 11.74 270.124 12.06C270.511 12.38 270.704 12.8333 270.704 13.42Z" fill="#02B589"/>
</svg>
